<?xml version="1.0" standalone="no"?>
<!DOCTYPE svg PUBLIC "-//W3C//DTD SVG 20010904//EN"
 "http://www.w3.org/TR/2001/REC-SVG-20010904/DTD/svg10.dtd">
<svg version="1.0" xmlns="http://www.w3.org/2000/svg"
 width="512.000000pt" height="512.000000pt" viewBox="0 0 512.000000 512.000000"
 preserveAspectRatio="xMidYMid meet">

<g transform="translate(0.000000,512.000000) scale(0.100000,-0.100000)"
fill="#000000" stroke="none">
<path d="M4930 4278 c-25 -11 -198 -87 -385 -168 -449 -195 -758 -329 -1050
-458 -132 -58 -301 -131 -375 -162 -74 -32 -214 -92 -310 -135 -96 -42 -323
-141 -505 -220 -181 -78 -428 -186 -548 -239 -120 -53 -220 -96 -222 -96 -3 0
-121 -51 -262 -114 -142 -63 -388 -170 -548 -239 -159 -69 -360 -156 -445
-194 l-155 -69 -3 -83 c-2 -46 1 -88 7 -94 6 -6 84 23 213 78 111 48 209 89
215 92 10 4 13 -207 15 -1023 l3 -1029 2205 0 2205 0 3 2079 c1 1144 -1 2083
-5 2087 -5 5 -28 -1 -53 -13z m25 -2089 l0 -2044 -2172 -3 -2173 -2 0 1046 0
1046 -22 -6 c-13 -3 -113 -43 -222 -90 -110 -47 -203 -83 -208 -80 -13 8 -9
90 5 102 7 6 80 40 162 75 83 35 290 125 460 200 171 74 488 212 705 307 217
94 528 229 690 300 162 71 493 215 735 320 242 105 573 249 735 320 162 71
491 214 730 318 570 249 553 242 565 238 7 -2 10 -693 10 -2047z"/>
<path d="M3600 3121 l0 -250 -27 -3 -28 -3 -3 -253 c-2 -197 0 -253 10 -256 7
-2 22 -8 33 -13 11 -4 -200 -10 -495 -13 l-515 -5 -3 -32 c-2 -18 -6 -33 -10
-32 -4 0 -26 27 -50 60 l-42 60 -43 -25 c-23 -14 -46 -31 -51 -39 -6 -10 18
-65 78 -180 l87 -167 -11 -137 c-7 -76 -16 -142 -20 -146 -4 -5 -32 -6 -63 -2
-50 6 -59 12 -113 67 -159 164 -332 239 -554 239 -224 1 -415 -80 -562 -240
-222 -242 -271 -564 -128 -856 81 -167 184 -271 345 -350 201 -100 398 -110
610 -34 79 29 205 101 205 117 0 5 -22 19 -49 32 l-50 23 -49 -21 c-94 -40
-244 -51 -440 -32 -94 9 -132 25 -132 57 0 10 29 13 138 13 155 0 190 8 341
81 112 55 125 69 146 165 30 139 69 198 257 390 252 259 266 288 277 554 8
193 14 214 75 268 41 36 91 52 163 52 33 0 69 9 105 25 29 14 61 25 70 25 44
0 82 -111 58 -169 -6 -16 -36 -52 -65 -80 -63 -61 -73 -94 -56 -179 7 -31 11
-104 9 -163 -3 -102 -2 -106 27 -150 27 -40 30 -52 30 -124 0 -44 -2 -96 -5
-115 l-5 -35 470 -3 470 -2 23 -40 23 -41 -35 -57 c-50 -81 -72 -184 -58 -274
40 -264 284 -428 537 -363 315 82 427 474 203 711 -61 65 -143 110 -232 129
-55 11 -61 14 -59 36 1 13 27 237 58 497 31 260 53 477 50 482 -4 6 -176 10
-446 10 -291 0 -438 3 -434 10 3 6 17 10 31 10 l24 0 -2 258 -3 257 -27 3 -28
3 0 250 0 249 -30 0 -30 0 0 -249z m-145 -1116 l0 -180 -100 0 -100 0 -3 170
c-1 93 0 175 3 182 3 11 28 13 102 11 l98 -3 0 -180z m253 43 l3 -137 -58 -3
-58 -3 -3 -42 c-3 -42 -4 -43 -38 -43 l-34 0 0 185 0 186 93 -3 92 -3 3 -137z
m224 -18 c35 -201 35 -210 3 -210 -16 0 -25 6 -25 15 0 11 -11 15 -35 15 -22
0 -38 -6 -41 -15 -4 -9 -19 -15 -40 -15 -26 0 -34 4 -34 18 0 17 65 313 75
340 3 8 17 12 37 10 l33 -3 27 -155z m162 151 c10 -16 -35 -131 -51 -131 -13
0 -14 10 -8 58 4 31 12 63 17 70 12 14 34 16 42 3z m224 -23 c3 -26 1 -27 -45
-30 l-48 -3 -3 -47 -3 -48 50 0 51 0 0 -105 0 -106 -77 3 c-67 3 -78 6 -81 22
-5 24 14 36 61 36 l38 0 -3 43 c-3 42 -3 42 -48 47 l-45 5 -3 94 c-1 52 0 101
2 108 4 10 24 13 78 11 71 -3 73 -4 76 -30z m-998 -473 c0 -20 -5 -25 -24 -25
-53 0 -56 -5 -56 -110 0 -75 3 -99 14 -103 21 -8 26 2 26 47 0 65 9 86 37 86
24 0 24 -1 21 -87 l-3 -88 -80 0 -80 0 -3 153 -3 152 76 0 c73 0 75 -1 75 -25z
m199 -12 c27 -106 52 -245 47 -258 -8 -22 -37 -18 -43 5 -6 24 -63 29 -63 6 0
-17 -25 -27 -46 -19 -10 4 -14 13 -10 27 2 11 14 73 26 136 26 144 25 140 54
140 21 0 27 -7 35 -37z m271 -68 c0 -58 -4 -105 -9 -105 -4 0 -3 -18 2 -40 20
-74 -31 -80 -56 -7 -19 58 -45 61 -49 6 -3 -49 -27 -71 -52 -50 -13 11 -16 38
-16 151 0 75 3 140 7 143 3 4 44 7 90 7 l83 0 0 -105z m188 -42 c26 -115 30
-148 20 -155 -20 -12 -27 -10 -40 12 -7 11 -23 20 -35 20 -12 0 -27 -9 -33
-20 -12 -23 -38 -27 -46 -6 -3 7 6 75 20 151 15 76 26 140 26 142 0 1 13 3 28
3 28 0 28 0 60 -147z m222 123 c0 -21 -5 -25 -37 -28 l-38 -3 -3 -102 c-3 -98
-2 -103 18 -103 18 0 20 6 20 65 l0 65 30 0 31 0 -3 -87 -3 -88 -65 -3 c-116
-5 -110 -14 -110 152 0 78 3 146 7 149 3 4 39 7 80 7 71 0 73 -1 73 -24z m215
-1 c0 -16 -8 -21 -45 -25 -44 -5 -45 -6 -48 -42 -3 -36 -2 -37 35 -40 33 -3
38 -6 38 -28 0 -22 -5 -25 -38 -28 -35 -3 -38 -6 -35 -30 2 -22 9 -28 38 -32
24 -3 36 -11 38 -24 5 -25 -14 -36 -65 -36 -75 0 -73 -5 -73 161 l0 150 78 -3
c69 -3 77 -5 77 -23z"/>
<path d="M3333 2124 c-10 -4 -13 -39 -13 -125 l0 -119 40 0 41 0 -3 123 -3
122 -25 2 c-14 1 -31 -1 -37 -3z"/>
<path d="M3601 2116 c-7 -9 -11 -39 -9 -78 3 -61 4 -63 31 -66 l28 -3 -3 78
c-2 62 -6 78 -19 81 -9 1 -21 -4 -28 -12z"/>
<path d="M3854 2017 c-11 -29 0 -102 16 -102 19 0 22 106 3 112 -7 3 -16 -2
-19 -10z"/>
<path d="M3475 1578 c-2 -7 -6 -30 -10 -50 -6 -36 -4 -38 20 -38 27 0 30 11
19 69 -7 31 -21 41 -29 19z"/>
<path d="M3672 1608 c3 -60 4 -63 28 -63 24 0 25 3 28 63 l3 62 -31 0 -31 0 3
-62z"/>
<path d="M3906 1559 c-11 -58 -8 -69 20 -69 24 0 25 3 19 33 -16 77 -28 89
-39 36z"/>
<path d="M1417 2373 c-4 -3 -7 -43 -7 -88 l0 -82 -47 -18 c-138 -51 -271 -163
-327 -275 -34 -69 -60 -183 -54 -237 3 -26 5 -25 35 29 74 130 252 275 412
337 303 117 609 70 877 -133 l59 -44 3 41 c5 59 -23 121 -79 177 -72 72 -167
115 -341 154 -26 6 -28 10 -28 60 0 93 19 86 -254 86 -134 0 -246 -3 -249 -7z"/>
</g>
</svg>
